<?xml version="1.0" encoding="UTF-8" standalone="no"?>
<!DOCTYPE svg PUBLIC "-//W3C//DTD SVG 1.1//EN" "http://www.w3.org/Graphics/SVG/1.1/DTD/svg11.dtd">
<svg version="1.1" xmlns="http://www.w3.org/2000/svg" xmlns:xlink="http://www.w3.org/1999/xlink" preserveAspectRatio="xMidYMid meet" viewBox="0 0 64 15.1" width="64" height="15.1"><defs><path d="M59.8 7C59.22 7.2 58.67 7.48 58.17 7.86C57.68 8.22 57.24 8.64 56.84 9.11C56.44 9.57 56.09 10.03 55.8 10.5C55.3 11.34 55.06 11.88 55.07 12.13C55.1 12.38 55.27 12.42 55.59 12.25C55.91 12.07 56.33 11.72 56.84 11.19C57.37 10.65 57.89 10 58.4 9.25C58.51 9.09 58.64 8.91 58.78 8.73C58.93 8.54 59.09 8.37 59.26 8.21C59.42 8.06 59.61 7.93 59.82 7.82C60.04 7.71 60.28 7.64 60.53 7.61C60.82 7.6 61.07 7.64 61.28 7.73C61.49 7.83 61.64 7.97 61.74 8.15C61.84 8.33 61.89 8.55 61.86 8.79C61.84 9.04 61.76 9.31 61.61 9.59C61.53 9.71 61.42 9.87 61.3 10.04C61.17 10.23 61.05 10.43 60.92 10.65C60.8 10.86 60.67 11.08 60.55 11.29C60.42 11.5 60.32 11.71 60.26 11.92C60.16 12.18 60.18 12.31 60.32 12.29C60.47 12.28 60.67 12.16 60.92 11.94C61.39 11.55 61.82 11.13 62.21 10.67C62.61 10.21 62.99 9.79 63.36 9.42C63.43 9.34 63.51 9.29 63.59 9.27C63.67 9.26 63.74 9.27 63.82 9.32C63.89 9.36 63.93 9.42 63.96 9.5C64 9.58 64.01 9.66 63.98 9.77C63.89 10.22 63.68 10.73 63.36 11.31C63.04 11.89 62.66 12.44 62.23 12.98C61.8 13.51 61.34 13.98 60.84 14.38C60.34 14.78 59.87 15.01 59.42 15.06C59.12 15.1 58.83 15.08 58.57 15C58.32 14.92 58.1 14.79 57.9 14.63C57.72 14.45 57.58 14.23 57.47 13.98C57.35 13.72 57.3 13.44 57.3 13.15C57.3 12.91 57.32 12.68 57.36 12.44C57.4 12.2 57.46 11.97 57.53 11.73C57.32 12.1 57.1 12.49 56.86 12.92C56.62 13.33 56.35 13.72 56.05 14.06C55.76 14.41 55.43 14.68 55.05 14.88C54.69 15.06 54.27 15.09 53.8 14.98C53.28 14.85 52.9 14.62 52.68 14.25C52.44 13.89 52.31 13.48 52.28 13.02C52.25 12.56 52.3 12.1 52.43 11.63C52.54 11.14 52.67 10.72 52.82 10.36C53.24 9.43 53.77 8.57 54.43 7.77C55.09 6.98 55.85 6.31 56.7 5.75C57.08 5.49 57.51 5.27 57.99 5.07C58.47 4.86 58.95 4.72 59.44 4.65C59.94 4.57 60.43 4.58 60.92 4.67C61.41 4.75 61.86 4.96 62.28 5.3C62.44 5.44 62.54 5.6 62.57 5.78C62.59 5.96 62.57 6.13 62.51 6.3C62.43 6.46 62.32 6.6 62.17 6.71C62.02 6.81 61.84 6.85 61.63 6.82C60.99 6.75 60.38 6.81 59.8 7Z" id="b3MzBCKLzp"></path><path d="M46.49 7.76C46.18 8.32 46.01 8.63 45.97 8.7C46.18 8.43 46.38 8.17 46.58 7.92C46.77 7.67 46.98 7.42 47.2 7.17C47.45 6.87 47.74 6.53 48.08 6.15C48.42 5.78 48.79 5.46 49.18 5.18C49.57 4.88 49.98 4.69 50.41 4.59C50.85 4.5 51.29 4.57 51.74 4.8C52 4.94 52.21 5.11 52.37 5.32C52.52 5.53 52.62 5.77 52.68 6.03C52.73 6.28 52.74 6.54 52.7 6.8C52.67 7.07 52.62 7.33 52.53 7.59C52.25 8.38 51.89 9.12 51.43 9.8C50.98 10.47 50.54 11.13 50.1 11.8C49.89 12.12 49.77 12.36 49.74 12.53C49.71 12.68 49.74 12.78 49.83 12.82C49.91 12.85 50.04 12.82 50.22 12.74C50.41 12.64 50.62 12.49 50.85 12.28C51.1 12.07 51.33 11.85 51.53 11.61C51.75 11.36 51.98 11.13 52.22 10.9C52.47 10.64 52.71 10.38 52.95 10.11C53.2 9.85 53.45 9.57 53.7 9.28C53.81 9.15 53.92 9.08 54.03 9.05C54.14 9.02 54.23 9.04 54.3 9.09C54.39 9.15 54.44 9.23 54.47 9.34C54.5 9.44 54.47 9.55 54.41 9.67C54.31 9.86 54.17 10.08 53.99 10.34C53.82 10.61 53.64 10.87 53.45 11.13C53.25 11.4 53.06 11.65 52.87 11.9C52.68 12.15 52.53 12.36 52.41 12.53C52.17 12.82 51.91 13.14 51.64 13.48C51.36 13.83 51.05 14.13 50.72 14.38C50.39 14.62 50.02 14.79 49.64 14.9C49.25 15.01 48.85 14.98 48.43 14.8C48.07 14.65 47.79 14.44 47.6 14.19C47.4 13.94 47.27 13.67 47.2 13.36C47.13 13.04 47.12 12.71 47.16 12.38C47.21 12.04 47.3 11.7 47.41 11.38C47.58 10.96 47.77 10.57 47.99 10.19C48.23 9.81 48.47 9.44 48.72 9.09C48.97 8.73 49.23 8.38 49.49 8.05C49.75 7.71 50 7.34 50.22 6.97C50.36 6.75 50.4 6.61 50.35 6.55C50.3 6.5 50.2 6.51 50.03 6.59C49.87 6.66 49.65 6.8 49.39 7.01C49.12 7.21 48.82 7.45 48.47 7.74C48.1 8.09 47.74 8.45 47.41 8.82C47.09 9.19 46.77 9.59 46.45 9.99C46.19 10.31 45.92 10.63 45.66 10.94C45.41 11.27 45.17 11.59 44.95 11.92C44.74 12.25 44.56 12.58 44.39 12.94C44.22 13.31 44.1 13.7 44.02 14.13C43.98 14.35 43.9 14.54 43.77 14.67C43.63 14.81 43.46 14.91 43.29 14.96C43.12 15 42.95 15.01 42.77 14.98C42.59 14.94 42.43 14.87 42.29 14.78C42.08 14.62 41.94 14.42 41.87 14.15C41.79 13.88 41.76 13.58 41.79 13.26C41.82 12.92 41.87 12.58 41.95 12.24C42.04 11.88 42.14 11.53 42.27 11.19C42.38 10.86 42.5 10.56 42.62 10.28C42.73 10 42.83 9.78 42.91 9.61C43.29 8.73 43.7 7.86 44.16 7.03C44.63 6.19 45.12 5.36 45.64 4.57C45.75 4.41 45.9 4.18 46.08 3.88C46.27 3.59 46.48 3.3 46.7 2.99C46.94 2.69 47.19 2.39 47.45 2.09C47.73 1.8 48 1.57 48.28 1.39C48.56 1.19 48.85 1.07 49.14 1.03C49.44 0.99 49.73 1.07 50.01 1.26C50.3 1.44 50.48 1.69 50.53 2.01C50.59 2.33 50.55 2.65 50.43 2.95C50.29 3.27 50.11 3.58 49.89 3.88C49.66 4.18 49.4 4.49 49.1 4.82C48.81 5.15 48.47 5.52 48.1 5.9C47.72 6.3 47.31 6.72 46.85 7.17C46.8 7.25 46.68 7.45 46.49 7.76Z" id="bYXCvLosa"></path><path d="M40.03 8.11C40.16 7.9 40.24 7.69 40.28 7.48C40.32 7.33 40.3 7.22 40.22 7.15C40.14 7.08 40.04 7.07 39.91 7.11C39.78 7.14 39.62 7.21 39.43 7.34C39.23 7.46 39.04 7.62 38.84 7.82C38.59 8.07 38.35 8.33 38.11 8.61C37.89 8.89 37.69 9.17 37.51 9.46C37.43 9.62 37.31 9.83 37.16 10.11C37 10.37 36.88 10.66 36.78 10.96C36.68 11.27 36.63 11.56 36.61 11.86C36.61 12.14 36.7 12.36 36.89 12.52C37.12 12.72 37.41 12.81 37.74 12.79C38.07 12.78 38.43 12.69 38.8 12.52C39.19 12.36 39.59 12.15 40.01 11.9C40.43 11.64 40.81 11.36 41.18 11.06C41.53 10.76 41.86 10.46 42.15 10.15C42.46 9.85 42.7 9.58 42.88 9.36C42.98 9.22 43.08 9.14 43.17 9.13C43.28 9.12 43.37 9.15 43.42 9.23C43.49 9.31 43.53 9.41 43.55 9.57C43.58 9.71 43.56 9.87 43.51 10.07C43.39 10.36 43.26 10.64 43.09 10.9C42.94 11.16 42.78 11.42 42.61 11.67C42.16 12.28 41.66 12.83 41.09 13.33C40.54 13.83 39.92 14.25 39.24 14.56C38.68 14.83 38.09 15 37.47 15.06C36.85 15.12 36.27 15 35.7 14.71C35.16 14.42 34.74 14.02 34.45 13.5C34.16 12.99 34.01 12.43 33.99 11.81C33.99 11.14 34.12 10.44 34.37 9.73C34.6 9.01 34.93 8.33 35.37 7.69C35.81 7.06 36.31 6.49 36.89 6C37.47 5.5 38.07 5.12 38.7 4.86C39.04 4.71 39.42 4.62 39.82 4.61C40.24 4.58 40.62 4.62 40.97 4.73C41.33 4.85 41.64 5.04 41.9 5.3C42.18 5.55 42.37 5.9 42.47 6.34C42.55 6.67 42.56 7.01 42.51 7.36C42.45 7.71 42.34 8.04 42.18 8.36C42.02 8.68 41.82 8.97 41.57 9.23C41.33 9.5 41.07 9.71 40.78 9.86C40.57 9.96 40.37 9.98 40.2 9.92C40.01 9.87 39.86 9.77 39.74 9.63C39.62 9.49 39.56 9.33 39.55 9.13C39.54 8.94 39.6 8.75 39.74 8.57C39.82 8.47 39.92 8.32 40.03 8.11Z" id="a1DoWd6oAu"></path><path d="M35.9 5.86C35.68 6 35.43 6.11 35.15 6.19C34.87 6.26 34.59 6.31 34.3 6.32C34.01 6.33 33.74 6.33 33.49 6.32C33.32 6.58 33.1 6.96 32.84 7.44C32.58 7.92 32.31 8.42 32.05 8.96C31.8 9.5 31.56 10.04 31.32 10.59C31.08 11.13 30.93 11.6 30.84 11.98C30.73 12.39 30.73 12.65 30.84 12.77C30.97 12.89 31.21 12.82 31.57 12.58C31.85 12.41 32.12 12.19 32.38 11.94C32.64 11.68 32.89 11.41 33.13 11.13C33.38 10.84 33.62 10.56 33.84 10.29C34.06 10.02 34.25 9.77 34.4 9.57C34.53 9.39 34.65 9.28 34.78 9.25C34.91 9.21 35.03 9.22 35.11 9.27C35.2 9.33 35.24 9.43 35.26 9.57C35.27 9.71 35.24 9.86 35.15 10.02C34.96 10.46 34.76 10.89 34.55 11.31C34.34 11.73 34.12 12.14 33.88 12.54C33.66 12.95 33.41 13.32 33.13 13.67C32.85 14 32.54 14.29 32.2 14.54C31.76 14.83 31.29 15.01 30.76 15.06C30.24 15.13 29.77 15.01 29.34 14.69C29 14.44 28.76 14.14 28.64 13.77C28.5 13.4 28.43 13.01 28.43 12.61C28.43 12.19 28.47 11.78 28.55 11.38C28.64 10.96 28.73 10.58 28.84 10.23C28.94 9.93 29.05 9.62 29.18 9.29C29.3 8.98 29.44 8.64 29.59 8.3C29.74 7.95 29.92 7.58 30.11 7.17C30.31 6.75 30.53 6.31 30.78 5.82C30.6 5.81 30.43 5.78 30.28 5.73C30.12 5.68 30 5.6 29.91 5.48C29.75 5.33 29.72 5.15 29.8 4.92C29.89 4.7 30.04 4.5 30.26 4.32C30.49 4.13 30.77 3.97 31.07 3.86C31.39 3.73 31.71 3.69 32.03 3.73C32.2 3.48 32.38 3.25 32.59 3.01C32.8 2.77 33.02 2.56 33.26 2.38C33.44 2.23 33.66 2.11 33.93 2.03C34.2 1.93 34.47 1.9 34.72 1.92C34.97 1.94 35.19 2.02 35.38 2.17C35.58 2.31 35.7 2.54 35.76 2.84C35.8 3.15 35.76 3.43 35.63 3.69C35.51 3.94 35.35 4.18 35.17 4.4C35.31 4.46 35.45 4.5 35.59 4.53C35.74 4.56 35.89 4.57 36.03 4.57C36.25 4.57 36.39 4.65 36.47 4.82C36.53 4.97 36.53 5.12 36.47 5.28C36.33 5.53 36.14 5.72 35.9 5.86Z" id="a98DgLkcJ"></path><path d="M25.52 7C24.94 7.2 24.4 7.48 23.9 7.86C23.41 8.22 22.96 8.64 22.56 9.11C22.16 9.57 21.81 10.03 21.52 10.5C21.02 11.34 20.78 11.88 20.79 12.13C20.82 12.38 20.99 12.42 21.31 12.25C21.63 12.07 22.05 11.72 22.56 11.19C23.09 10.65 23.61 10 24.13 9.25C24.24 9.09 24.36 8.91 24.5 8.73C24.65 8.54 24.81 8.37 24.98 8.21C25.15 8.06 25.33 7.93 25.54 7.82C25.76 7.71 26 7.64 26.25 7.61C26.54 7.6 26.79 7.64 27 7.73C27.21 7.83 27.36 7.97 27.46 8.15C27.57 8.33 27.61 8.55 27.58 8.79C27.57 9.04 27.48 9.31 27.33 9.59C27.25 9.71 27.15 9.87 27.02 10.04C26.9 10.23 26.77 10.43 26.65 10.65C26.52 10.86 26.4 11.08 26.27 11.29C26.15 11.5 26.05 11.71 25.98 11.92C25.88 12.18 25.9 12.31 26.04 12.29C26.19 12.28 26.4 12.16 26.65 11.94C27.11 11.55 27.55 11.13 27.94 10.67C28.34 10.21 28.72 9.79 29.08 9.42C29.15 9.34 29.23 9.29 29.31 9.27C29.39 9.26 29.47 9.27 29.54 9.32C29.61 9.36 29.65 9.42 29.69 9.5C29.73 9.58 29.73 9.66 29.71 9.77C29.61 10.22 29.4 10.73 29.08 11.31C28.76 11.89 28.38 12.44 27.96 12.98C27.53 13.51 27.06 13.98 26.56 14.38C26.06 14.78 25.59 15.01 25.15 15.06C24.84 15.1 24.55 15.08 24.29 15C24.04 14.92 23.82 14.79 23.63 14.63C23.44 14.45 23.3 14.23 23.19 13.98C23.07 13.72 23.02 13.44 23.02 13.15C23.02 12.91 23.04 12.68 23.08 12.44C23.13 12.2 23.18 11.97 23.25 11.73C23.04 12.1 22.82 12.49 22.58 12.92C22.35 13.33 22.07 13.72 21.77 14.06C21.48 14.41 21.15 14.68 20.77 14.88C20.41 15.06 19.99 15.09 19.52 14.98C19 14.85 18.62 14.62 18.4 14.25C18.16 13.89 18.03 13.48 18 13.02C17.98 12.56 18.02 12.1 18.15 11.63C18.26 11.14 18.39 10.72 18.54 10.36C18.96 9.43 19.49 8.57 20.15 7.77C20.81 6.98 21.57 6.31 22.42 5.75C22.8 5.49 23.24 5.27 23.71 5.07C24.19 4.86 24.68 4.72 25.17 4.65C25.67 4.57 26.16 4.58 26.65 4.67C27.13 4.75 27.58 4.96 28 5.3C28.17 5.44 28.26 5.6 28.29 5.78C28.32 5.96 28.3 6.13 28.23 6.3C28.16 6.46 28.05 6.6 27.9 6.71C27.74 6.81 27.56 6.85 27.35 6.82C26.71 6.75 26.1 6.81 25.52 7Z" id="a3XaugX1JZ"></path><path d="M0.13 13.08C0.14 12.57 0.22 12.06 0.36 11.56C0.5 11.05 0.67 10.56 0.88 10.09C1.09 9.6 1.3 9.16 1.51 8.77C2.1 7.62 2.79 6.53 3.57 5.48C4.34 4.44 5.2 3.48 6.15 2.59C6.45 2.29 6.83 1.94 7.27 1.55C7.72 1.16 8.18 0.83 8.67 0.55C9.15 0.27 9.65 0.1 10.17 0.03C10.68 -0.06 11.17 0.05 11.65 0.34C12.03 0.61 12.29 0.92 12.42 1.28C12.54 1.63 12.59 2 12.56 2.4C12.53 2.79 12.45 3.19 12.31 3.59C12.17 3.98 12.02 4.33 11.86 4.65C11.46 5.48 11.03 6.26 10.54 6.98C10.05 7.69 9.62 8.43 9.23 9.19C9.61 8.73 9.94 8.31 10.23 7.92C10.53 7.52 10.82 7.15 11.08 6.82C11.34 6.48 11.59 6.17 11.83 5.88C12.07 5.59 12.3 5.31 12.54 5.03C13.08 4.33 13.63 3.68 14.17 3.07C14.71 2.46 15.25 1.93 15.81 1.49C16.36 1.04 16.93 0.69 17.5 0.44C18.08 0.18 18.67 0.05 19.27 0.05C19.78 0.05 20.2 0.23 20.52 0.59C20.85 0.94 21.02 1.35 21.02 1.82C21.02 2.15 20.96 2.49 20.85 2.82C20.75 3.14 20.63 3.46 20.48 3.78C20.32 4.08 20.15 4.39 19.96 4.69C19.77 4.98 19.61 5.27 19.46 5.53C19.38 5.62 19.21 5.88 18.94 6.3C18.67 6.71 18.36 7.2 18 7.75C17.65 8.31 17.28 8.89 16.89 9.5C16.52 10.1 16.2 10.65 15.94 11.15C15.69 11.58 15.54 11.89 15.5 12.09C15.47 12.27 15.5 12.37 15.6 12.38C15.71 12.38 15.86 12.31 16.04 12.19C16.23 12.06 16.44 11.91 16.67 11.73C16.9 11.55 17.12 11.37 17.33 11.17C17.54 10.98 17.71 10.83 17.83 10.71C18.21 10.38 18.54 10.02 18.85 9.65C19.17 9.27 19.5 8.91 19.85 8.57C20.03 8.4 20.18 8.32 20.31 8.32C20.45 8.32 20.55 8.38 20.62 8.5C20.69 8.62 20.71 8.77 20.68 8.98C20.67 9.18 20.59 9.41 20.43 9.67C20.23 10.02 20 10.4 19.75 10.81C19.51 11.22 19.25 11.63 18.98 12.04C18.7 12.46 18.4 12.87 18.08 13.25C17.76 13.64 17.42 13.98 17.04 14.27C16.68 14.55 16.3 14.77 15.9 14.92C15.49 15.07 15.06 15.13 14.6 15.08C13.96 15.02 13.44 14.79 13.04 14.4C12.65 14.01 12.43 13.48 12.38 12.81C12.33 12.15 12.47 11.36 12.79 10.44C13.13 9.52 13.69 8.5 14.5 7.38C14.73 7.06 14.99 6.7 15.27 6.3C15.56 5.9 15.82 5.54 16.06 5.23C16.32 4.86 16.5 4.58 16.6 4.4C16.71 4.21 16.74 4.09 16.69 4.05C16.64 4.01 16.52 4.04 16.33 4.15C16.15 4.27 15.93 4.44 15.67 4.67C15.18 5.09 14.7 5.56 14.23 6.07C13.77 6.57 13.32 7.09 12.9 7.63C12.46 8.16 12.04 8.69 11.63 9.21C11.21 9.74 10.81 10.24 10.44 10.71C10.06 11.17 9.68 11.67 9.29 12.21C8.92 12.74 8.49 13.17 8 13.5C7.7 13.73 7.38 13.83 7.07 13.81C6.74 13.8 6.45 13.68 6.17 13.44C5.9 13.23 5.72 13 5.61 12.73C5.49 12.45 5.43 12.16 5.42 11.86C5.42 11.55 5.45 11.25 5.52 10.94C5.59 10.64 5.68 10.34 5.77 10.04C6.02 9.35 6.36 8.63 6.77 7.88C7.2 7.12 7.63 6.42 8.04 5.8C8.28 5.42 8.5 5.06 8.71 4.69C8.92 4.33 9.04 4.07 9.09 3.9C9.13 3.72 9.05 3.69 8.88 3.82C8.71 3.94 8.36 4.29 7.84 4.86C6.88 5.89 5.97 7.01 5.11 8.23C4.26 9.44 3.53 10.65 2.92 11.86C2.77 12.16 2.61 12.51 2.44 12.9C2.28 13.29 2.2 13.66 2.23 14.02C2.24 14.27 2.18 14.49 2.05 14.67C1.91 14.85 1.72 14.97 1.51 15.02C1.3 15.06 1.09 15.05 0.88 14.98C0.67 14.9 0.51 14.73 0.4 14.48C0.2 14.05 0.12 13.58 0.13 13.08Z" id="bE8mPvtLT"></path></defs><g><g><g><use xlink:href="#b3MzBCKLzp" opacity="1" fill="#ffffff" fill-opacity="1"></use><g><use xlink:href="#b3MzBCKLzp" opacity="1" fill-opacity="0" stroke="#000000" stroke-width="1" stroke-opacity="0"></use></g></g><g><use xlink:href="#bYXCvLosa" opacity="1" fill="#ffffff" fill-opacity="1"></use><g><use xlink:href="#bYXCvLosa" opacity="1" fill-opacity="0" stroke="#000000" stroke-width="1" stroke-opacity="0"></use></g></g><g><use xlink:href="#a1DoWd6oAu" opacity="1" fill="#ffffff" fill-opacity="1"></use><g><use xlink:href="#a1DoWd6oAu" opacity="1" fill-opacity="0" stroke="#000000" stroke-width="1" stroke-opacity="0"></use></g></g><g><use xlink:href="#a98DgLkcJ" opacity="1" fill="#ffffff" fill-opacity="1"></use><g><use xlink:href="#a98DgLkcJ" opacity="1" fill-opacity="0" stroke="#000000" stroke-width="1" stroke-opacity="0"></use></g></g><g><use xlink:href="#a3XaugX1JZ" opacity="1" fill="#ffffff" fill-opacity="1"></use><g><use xlink:href="#a3XaugX1JZ" opacity="1" fill-opacity="0" stroke="#000000" stroke-width="1" stroke-opacity="0"></use></g></g><g><use xlink:href="#bE8mPvtLT" opacity="1" fill="#ffffff" fill-opacity="1"></use><g><use xlink:href="#bE8mPvtLT" opacity="1" fill-opacity="0" stroke="#000000" stroke-width="1" stroke-opacity="0"></use></g></g></g></g></svg>