<?xml version="1.0" encoding="UTF-8"?>
<svg xmlns="http://www.w3.org/2000/svg" xmlns:xlink="http://www.w3.org/1999/xlink" viewBox="0 0 24 24" width="24px" height="24px">
<g id="surface7009604">
<path style="fill-rule:nonzero;fill:rgb(100%,100%,100%);fill-opacity:1;stroke-width:25;stroke-linecap:butt;stroke-linejoin:round;stroke:rgb(0%,0%,0%);stroke-opacity:1;stroke-miterlimit:10;" d="M 91.098495 16.466568 C 91.098495 16.466568 91.129774 16.497847 91.129774 16.497847 L 163.384489 79.525229 C 164.291583 80.213369 164.823328 81.276858 164.823328 82.402906 C 164.823328 84.404768 163.228094 86.000002 161.257511 86.000002 L 155.220645 86.000002 C 147.619824 81.433254 138.674002 78.837089 129.008761 78.837089 C 111.617583 78.837089 96.541058 87.251166 87.595236 100.325829 L 71.674175 100.325829 L 71.674175 143.334588 C 71.674175 147.275754 68.452428 150.497501 64.511262 150.497501 L 35.82833 150.497501 C 31.887163 150.497501 28.665416 147.275754 28.665416 143.334588 L 28.665416 86.000002 L 10.742494 86.000002 C 8.77191 86.000002 7.176676 84.404768 7.176676 82.402906 C 7.176676 81.276858 7.708421 80.213369 8.615515 79.525229 L 80.901509 16.466568 C 82.24651 15.090288 84.091977 14.33959 86.000002 14.33959 C 87.908027 14.33959 89.753494 15.090288 91.098495 16.466568 Z M 91.098495 16.466568 " transform="matrix(0.124884,0,0,0.124884,1.26,1.26)"/>
<path style="fill-rule:nonzero;fill:rgb(100%,100%,100%);fill-opacity:1;stroke-width:25;stroke-linecap:butt;stroke-linejoin:round;stroke:rgb(0%,0%,0%);stroke-opacity:1;stroke-miterlimit:10;" d="M 169.890542 169.890542 C 168.514261 171.298101 166.668795 171.986241 164.823328 171.986241 C 163.00914 171.986241 161.163673 171.298101 159.756114 169.890542 L 148.996104 159.130532 C 143.27203 162.696349 136.140395 164.823328 129.008761 164.823328 C 108.927581 164.823328 93.162915 149.058663 93.162915 129.008761 C 93.162915 108.927581 108.927581 93.162915 129.008761 93.162915 C 149.058663 93.162915 164.823328 108.927581 164.823328 129.008761 C 164.823328 136.140395 162.696349 143.27203 159.130532 148.996104 L 169.890542 159.756114 C 172.70566 162.571233 172.70566 167.106702 169.890542 169.890542 Z M 129.008761 150.497501 C 141.17633 150.497501 150.497501 141.17633 150.497501 129.008761 C 150.497501 116.809913 141.17633 107.488742 129.008761 107.488742 C 116.809913 107.488742 107.488742 116.809913 107.488742 129.008761 C 107.488742 141.17633 116.809913 150.497501 129.008761 150.497501 Z M 129.008761 150.497501 " transform="matrix(0.124884,0,0,0.124884,1.26,1.26)"/>
<path style=" stroke:none;fill-rule:nonzero;fill:rgb(100%,100%,100%);fill-opacity:1;" d="M 12.636719 3.316406 C 12.636719 3.316406 12.640625 3.320312 12.640625 3.320312 L 21.664062 11.191406 C 21.777344 11.277344 21.84375 11.410156 21.84375 11.550781 C 21.84375 11.800781 21.644531 12 21.398438 12 L 20.644531 12 C 19.695312 11.429688 18.578125 11.105469 17.371094 11.105469 C 15.199219 11.105469 13.316406 12.15625 12.199219 13.789062 L 10.210938 13.789062 L 10.210938 19.160156 C 10.210938 19.652344 9.808594 20.054688 9.316406 20.054688 L 5.734375 20.054688 C 5.242188 20.054688 4.839844 19.652344 4.839844 19.160156 L 4.839844 12 L 2.601562 12 C 2.355469 12 2.15625 11.800781 2.15625 11.550781 C 2.15625 11.410156 2.222656 11.277344 2.335938 11.191406 L 11.363281 3.316406 C 11.53125 3.144531 11.761719 3.050781 12 3.050781 C 12.238281 3.050781 12.46875 3.144531 12.636719 3.316406 Z M 12.636719 3.316406 "/>
<path style=" stroke:none;fill-rule:nonzero;fill:rgb(100%,100%,100%);fill-opacity:1;" d="M 22.476562 21.210938 L 21.132812 19.867188 C 21.578125 19.152344 21.84375 18.261719 21.84375 17.371094 C 21.84375 14.863281 19.875 12.894531 17.371094 12.894531 C 14.863281 12.894531 12.894531 14.863281 12.894531 17.371094 C 12.894531 19.875 14.863281 21.84375 17.371094 21.84375 C 18.261719 21.84375 19.152344 21.578125 19.867188 21.132812 L 21.210938 22.476562 C 21.386719 22.652344 21.617188 22.738281 21.84375 22.738281 C 22.074219 22.738281 22.304688 22.652344 22.476562 22.476562 C 22.828125 22.128906 22.828125 21.5625 22.476562 21.210938 Z M 14.683594 17.371094 C 14.683594 15.847656 15.847656 14.683594 17.371094 14.683594 C 18.890625 14.683594 20.054688 15.847656 20.054688 17.371094 C 20.054688 18.890625 18.890625 20.054688 17.371094 20.054688 C 15.847656 20.054688 14.683594 18.890625 14.683594 17.371094 Z M 14.683594 17.371094 "/>
</g>
</svg>
