<?xml version="1.0" encoding="UTF-8"?>
<svg xmlns="http://www.w3.org/2000/svg" xmlns:xlink="http://www.w3.org/1999/xlink" viewBox="0 0 24 24" width="24px" height="24px">
<g id="surface6992675">
<path style="fill-rule:nonzero;fill:rgb(163, 102, 251);fill-opacity:1;stroke-width:25;stroke-linecap:butt;stroke-linejoin:round;stroke:none;stroke-opacity:1;stroke-miterlimit:10;" d="M 91.095349 16.472195 C 91.095349 16.472195 91.124973 16.501819 91.124973 16.501819 L 163.378198 79.541943 C 164.296546 80.223298 164.82978 81.289766 164.82978 82.415482 C 164.82978 84.400298 163.230077 86.000001 161.245261 86.000001 L 149.484486 86.000001 C 141.545223 80.786156 132.006256 77.764496 121.608191 77.764496 C 103.744848 77.764496 88.340306 86.651731 79.482695 100.338074 L 71.661927 100.338074 L 71.661927 122.941276 C 71.513807 124.570603 71.424934 126.259178 71.424934 127.947752 C 71.424934 129.636327 71.513807 131.295278 71.661927 132.954228 L 71.661927 143.32267 C 71.661927 147.292302 68.462523 150.491706 64.492891 150.491706 L 35.846368 150.491706 C 31.876736 150.491706 28.677332 147.292302 28.677332 143.32267 L 28.677332 86.000001 L 10.75474 86.000001 C 8.769924 86.000001 7.170222 84.400298 7.170222 82.415482 C 7.170222 81.289766 7.703456 80.223298 8.621803 79.541943 L 80.904652 16.472195 C 82.237738 15.109485 84.074433 14.339258 86.000001 14.339258 C 87.925568 14.339258 89.762264 15.109485 91.095349 16.472195 Z M 91.095349 16.472195 " transform="matrix(0.13186,0,0,0.13186,0.66,0.66)"/>
<path style="fill-rule:nonzero;fill:rgb(163, 102, 251);fill-opacity:1;stroke-width:10;stroke-linecap:butt;stroke-linejoin:round;stroke:none;stroke-opacity:1;stroke-miterlimit:10;" d="M 162.489474 168.829036 C 161.097141 170.250993 159.260445 170.932348 157.42375 170.932348 C 155.587055 170.932348 153.750359 170.250993 152.358026 168.829036 L 141.604471 158.075481 C 135.857392 161.630375 128.717979 163.763311 121.578567 163.763311 C 101.523039 163.763311 85.763008 148.00328 85.763008 127.947752 C 85.763008 107.8626 101.523039 92.102569 121.578567 92.102569 C 141.663719 92.102569 157.42375 107.8626 157.42375 127.947752 C 157.42375 135.087165 155.290814 142.226577 151.735919 147.944032 L 162.489474 158.697587 C 165.303766 161.511878 165.303766 166.044369 162.489474 168.829036 Z M 121.578567 149.454862 C 133.783704 149.454862 143.085677 140.123265 143.085677 127.947752 C 143.085677 115.77224 133.783704 106.440642 121.578567 106.440642 C 109.403054 106.440642 100.101081 115.77224 100.101081 127.947752 C 100.101081 140.123265 109.403054 149.454862 121.578567 149.454862 Z M 121.578567 149.454862 " transform="matrix(0.13186,0,0,0.13186,0.66,0.66)"/>
<path style=" stroke:none;fill-rule:nonzero;fill:rgb(163, 102, 251);fill-opacity:1;" d="M 12.671875 2.832031 C 12.671875 2.832031 12.675781 2.835938 12.675781 2.835938 L 22.203125 11.148438 C 22.324219 11.238281 22.394531 11.378906 22.394531 11.527344 C 22.394531 11.789062 22.183594 12 21.921875 12 L 20.371094 12 C 19.324219 11.3125 18.066406 10.914062 16.695312 10.914062 C 14.339844 10.914062 12.308594 12.085938 11.140625 13.890625 L 10.109375 13.890625 L 10.109375 16.871094 C 10.089844 17.085938 10.078125 17.308594 10.078125 17.53125 C 10.078125 17.753906 10.089844 17.972656 10.109375 18.191406 L 10.109375 19.558594 C 10.109375 20.082031 9.6875 20.503906 9.164062 20.503906 L 5.386719 20.503906 C 4.863281 20.503906 4.441406 20.082031 4.441406 19.558594 L 4.441406 12 L 2.078125 12 C 1.816406 12 1.605469 11.789062 1.605469 11.527344 C 1.605469 11.378906 1.675781 11.238281 1.796875 11.148438 L 11.328125 2.832031 C 11.503906 2.652344 11.746094 2.550781 12 2.550781 C 12.253906 2.550781 12.496094 2.652344 12.671875 2.832031 Z M 12.671875 2.832031 "/>
<path style=" stroke:none;fill-rule:nonzero;fill:rgb(163, 102, 251);fill-opacity:1;" d="M 22.085938 21.585938 L 20.667969 20.167969 C 21.136719 19.414062 21.417969 18.472656 21.417969 17.53125 C 21.417969 14.882812 19.339844 12.804688 16.691406 12.804688 C 14.046875 12.804688 11.96875 14.882812 11.96875 17.53125 C 11.96875 20.175781 14.046875 22.253906 16.691406 22.253906 C 17.632812 22.253906 18.574219 21.972656 19.332031 21.503906 L 20.75 22.921875 C 20.933594 23.109375 21.175781 23.199219 21.417969 23.199219 C 21.660156 23.199219 21.902344 23.109375 22.085938 22.921875 C 22.457031 22.554688 22.457031 21.957031 22.085938 21.585938 Z M 13.859375 17.53125 C 13.859375 15.925781 15.085938 14.695312 16.691406 14.695312 C 18.300781 14.695312 19.527344 15.925781 19.527344 17.53125 C 19.527344 19.136719 18.300781 20.367188 16.691406 20.367188 C 15.085938 20.367188 13.859375 19.136719 13.859375 17.53125 Z M 13.859375 17.53125 "/>
</g>
</svg>
