<?xml version="1.0" encoding="UTF-8" standalone="no"?>
<!DOCTYPE svg PUBLIC "-//W3C//DTD SVG 1.1//EN" "http://www.w3.org/Graphics/SVG/1.1/DTD/svg11.dtd">
<svg version="1.1" xmlns="http://www.w3.org/2000/svg" xmlns:xlink="http://www.w3.org/1999/xlink" preserveAspectRatio="xMidYMid meet" viewBox="0 0 149 20" width="149" height="21"><defs><path d="M15.23 5.3C15.34 5.36 15.41 5.44 15.44 5.53C15.46 5.63 15.45 5.74 15.4 5.86C15.34 5.99 15.24 6.09 15.08 6.18C14.29 6.68 13.47 7.09 12.61 7.43C11.74 7.75 10.9 7.95 10.09 8.03C10.03 8.63 9.9 9.23 9.69 9.82C9.48 10.4 9.26 10.95 9.02 11.45C8.82 11.86 8.58 12.28 8.32 12.69C8.05 13.1 7.76 13.49 7.44 13.86C7.14 14.24 6.8 14.58 6.42 14.9C6.06 15.21 5.66 15.46 5.23 15.65C4.55 15.94 3.89 16.04 3.24 15.94C2.58 15.83 2 15.58 1.49 15.19C0.99 14.79 0.6 14.29 0.32 13.67C0.04 13.05 -0.05 12.38 0.03 11.67C0.15 10.61 0.46 9.57 0.94 8.55C1.44 7.54 2.07 6.65 2.84 5.88C3.18 5.51 3.57 5.17 3.99 4.86C4.41 4.56 4.87 4.32 5.34 4.16C5.49 4.1 5.66 4.05 5.86 4.01C6.05 3.97 6.26 3.95 6.46 3.95C6.67 3.94 6.87 3.96 7.07 4.01C7.26 4.05 7.43 4.13 7.59 4.22C7.96 4.25 8.32 4.38 8.65 4.61C8.99 4.85 9.29 5.14 9.52 5.47C10.49 5.67 11.4 5.73 12.23 5.68C13.06 5.61 13.92 5.48 14.79 5.28C14.97 5.24 15.12 5.25 15.23 5.3ZM3.17 11.13C2.98 11.72 2.85 12.23 2.8 12.65C2.76 13.07 2.81 13.36 2.96 13.53C3.12 13.69 3.39 13.63 3.8 13.32C4.13 13.06 4.43 12.78 4.71 12.49C4.99 12.19 5.26 11.87 5.53 11.51C5.79 11.15 6.03 10.77 6.26 10.38C6.49 10 6.69 9.59 6.86 9.18C6.93 8.98 6.99 8.77 7.07 8.55C7.14 8.33 7.19 8.09 7.23 7.84C7.01 7.77 6.8 7.67 6.61 7.53C6.43 7.39 6.24 7.21 6.07 6.97C5.64 7.29 5.24 7.67 4.88 8.11C4.53 8.55 4.22 8.99 3.96 9.45C3.63 9.99 3.37 10.55 3.17 11.13Z" id="c2o8ND9QjZ"></path><path d="M17.01 7.05C17.05 6.86 17.02 6.73 16.92 6.66C16.84 6.59 16.7 6.58 16.51 6.63C16.32 6.68 16.12 6.75 15.9 6.86C15.69 6.96 15.47 7.07 15.26 7.2C15.03 7.32 14.85 7.45 14.71 7.57C14.2 7.94 13.86 8.25 13.69 8.51C13.54 8.77 13.5 8.96 13.57 9.07C13.62 9.14 13.71 9.19 13.84 9.2C13.96 9.2 14.11 9.2 14.28 9.2C14.45 9.19 14.62 9.16 14.78 9.13C14.94 9.11 15.07 9.09 15.17 9.09C15.66 9.05 16.09 9.11 16.46 9.28C16.84 9.44 17.14 9.65 17.36 9.95C17.59 10.23 17.74 10.56 17.82 10.95C17.9 11.34 17.9 11.75 17.82 12.19C18.09 12.03 18.36 11.83 18.61 11.59C18.86 11.36 19.09 11.11 19.3 10.86C19.5 10.6 19.69 10.34 19.86 10.09C20.04 9.84 20.19 9.64 20.32 9.49C20.47 9.28 20.62 9.15 20.77 9.11C20.93 9.07 21.05 9.09 21.13 9.15C21.21 9.23 21.26 9.34 21.27 9.51C21.28 9.66 21.23 9.84 21.11 10.05C20.58 11.04 20 11.94 19.38 12.76C18.75 13.58 18.03 14.29 17.21 14.88C16.86 15.12 16.45 15.33 15.96 15.51C15.49 15.69 15 15.83 14.49 15.92C13.97 16.01 13.46 16.04 12.97 16.03C12.47 16.03 12.02 15.96 11.63 15.84C11.43 15.77 11.24 15.67 11.03 15.55C10.82 15.42 10.63 15.29 10.47 15.13C10.3 14.96 10.16 14.78 10.05 14.57C9.94 14.36 9.88 14.14 9.88 13.9C9.88 13.6 9.98 13.33 10.15 13.09C10.32 12.84 10.53 12.66 10.78 12.55C11.03 12.42 11.29 12.37 11.57 12.38C11.85 12.4 12.1 12.5 12.32 12.67C12.65 12.97 13 13.19 13.36 13.34C13.44 13.33 13.62 13.23 13.88 13.03C14.14 12.84 14.41 12.61 14.67 12.36C14.93 12.11 15.16 11.87 15.34 11.63C15.53 11.38 15.59 11.19 15.53 11.05C15.47 10.97 15.37 10.93 15.21 10.95C15.07 10.95 14.96 10.96 14.88 10.99C14.53 11.07 14.17 11.11 13.8 11.09C13.43 11.07 13.09 11 12.76 10.88C12.43 10.77 12.15 10.6 11.9 10.36C11.65 10.13 11.48 9.82 11.38 9.43C11.26 8.98 11.24 8.55 11.32 8.11C11.4 7.67 11.55 7.25 11.78 6.86C12.01 6.46 12.29 6.1 12.61 5.78C12.93 5.45 13.26 5.17 13.59 4.93C13.93 4.69 14.33 4.48 14.78 4.3C15.24 4.13 15.69 4.01 16.15 3.95C16.61 3.88 17.05 3.92 17.48 4.05C17.93 4.18 18.3 4.43 18.61 4.8C18.88 5.15 19.03 5.52 19.05 5.91C19.07 6.3 19.01 6.67 18.86 7.03C18.7 7.39 18.48 7.72 18.19 8.01C17.9 8.29 17.57 8.5 17.21 8.63C16.92 8.72 16.71 8.69 16.59 8.53C16.46 8.36 16.47 8.15 16.61 7.9C16.83 7.52 16.96 7.23 17.01 7.05Z" id="ho73J9sfY"></path><path d="M23.98 13.38C24.41 13.37 24.86 13.28 25.33 13.11C25.8 12.93 26.27 12.71 26.75 12.42C27.22 12.13 27.67 11.82 28.1 11.49C28.53 11.15 28.91 10.83 29.25 10.51C29.59 10.19 29.86 9.92 30.06 9.7C30.2 9.53 30.34 9.44 30.48 9.43C30.63 9.4 30.75 9.43 30.83 9.51C30.92 9.58 30.98 9.7 31 9.86C31.02 10.02 31 10.19 30.91 10.38C30.13 11.96 29.12 13.25 27.87 14.28C27.47 14.6 27.03 14.89 26.56 15.15C26.1 15.42 25.62 15.63 25.12 15.78C24.64 15.93 24.14 16.01 23.63 16.03C23.11 16.05 22.59 15.97 22.08 15.8C21.47 15.58 20.99 15.28 20.63 14.9C20.26 14.52 20.01 14.08 19.86 13.61C19.69 13.14 19.62 12.63 19.65 12.09C19.66 11.54 19.75 10.99 19.9 10.45C20.05 9.89 20.25 9.36 20.5 8.84C20.75 8.33 21.01 7.86 21.29 7.45C21.58 7.06 21.9 6.67 22.25 6.28C22.59 5.88 22.97 5.52 23.38 5.2C23.79 4.88 24.23 4.61 24.69 4.41C25.16 4.19 25.65 4.05 26.17 3.99C26.76 3.91 27.34 3.99 27.89 4.24C28.46 4.49 28.9 4.89 29.21 5.43C29.51 5.94 29.65 6.47 29.62 7.01C29.61 7.55 29.48 8.07 29.25 8.57C29.01 9.07 28.69 9.53 28.29 9.95C27.88 10.36 27.47 10.7 27.04 10.95C26.3 11.38 25.57 11.62 24.85 11.67C24.15 11.72 23.43 11.63 22.71 11.42C22.59 11.75 22.53 12.05 22.52 12.34C22.52 12.62 22.62 12.84 22.81 13.01C23.16 13.26 23.55 13.38 23.98 13.38ZM26.23 8.51C26.32 8.38 26.44 8.21 26.58 7.99C26.72 7.77 26.82 7.55 26.87 7.32C26.94 7.09 26.9 6.95 26.77 6.91C26.64 6.85 26.5 6.85 26.33 6.91C26.09 6.98 25.86 7.1 25.65 7.28C25.42 7.46 25.22 7.63 25.04 7.78C24.75 8.06 24.47 8.36 24.21 8.7C23.96 9.02 23.73 9.35 23.52 9.7C23.98 9.74 24.4 9.69 24.79 9.55C25.34 9.33 25.82 8.98 26.23 8.51Z" id="cpAr6GG75"></path><path d="M31.92 11.2C32.51 10.98 33.08 10.92 33.63 11.05C33.89 10.87 34.16 10.65 34.44 10.38C34.73 10.11 34.99 9.82 35.23 9.53C35.48 9.23 35.69 8.92 35.88 8.61C36.07 8.3 36.21 8 36.31 7.74C36.42 7.42 36.46 7.17 36.44 6.99C36.41 6.8 36.33 6.66 36.21 6.57C36.08 6.49 35.92 6.46 35.73 6.49C35.53 6.52 35.34 6.59 35.15 6.7C34.65 6.96 34.15 7.32 33.67 7.78C33.19 8.23 32.74 8.7 32.29 9.2C31.85 9.7 31.41 10.21 30.98 10.72C30.55 11.22 30.14 11.66 29.73 12.05C29.52 12.26 29.35 12.39 29.19 12.44C29.02 12.5 28.9 12.5 28.82 12.44C28.72 12.38 28.68 12.25 28.69 12.07C28.71 11.89 28.79 11.67 28.94 11.42C29.29 10.79 29.71 10.11 30.19 9.4C30.66 8.69 31.13 7.98 31.59 7.3C31.79 7 32 6.69 32.21 6.36C32.43 6.05 32.67 5.75 32.92 5.47C33.18 5.18 33.46 4.92 33.75 4.68C34.05 4.44 34.39 4.26 34.75 4.14C35.23 3.96 35.73 3.89 36.23 3.93C36.73 3.97 37.19 4.1 37.6 4.32C38.02 4.55 38.38 4.85 38.69 5.24C38.99 5.63 39.2 6.07 39.31 6.57C39.42 7.09 39.44 7.59 39.35 8.09C39.28 8.59 39.13 9.08 38.92 9.55C38.71 10.01 38.44 10.45 38.12 10.86C37.82 11.28 37.49 11.67 37.15 12.03C36.67 12.52 36.15 12.95 35.56 13.34C35.57 13.44 35.6 13.6 35.65 13.82C35.7 14.04 35.72 14.32 35.71 14.65C35.71 14.97 35.67 15.34 35.58 15.76C35.5 16.17 35.32 16.62 35.06 17.11C34.55 18.12 33.9 18.89 33.13 19.42C32.36 19.95 31.51 20.18 30.59 20.13C30.26 20.11 29.97 20.05 29.69 19.92C29.41 19.81 29.18 19.66 28.98 19.48C28.77 19.3 28.63 19.07 28.54 18.8C28.45 18.53 28.43 18.22 28.48 17.88C28.52 17.63 28.64 17.4 28.84 17.19C29.03 16.99 29.25 16.87 29.48 16.82C29.72 16.76 29.95 16.79 30.17 16.9C30.39 17.01 30.55 17.24 30.67 17.61C30.71 17.73 30.81 17.78 30.98 17.73C31.15 17.7 31.34 17.59 31.56 17.4C31.8 17.2 32.03 16.93 32.27 16.59C32.51 16.26 32.71 15.85 32.88 15.38C32.92 15.27 32.96 15.15 33 15.03C33.04 14.9 33.1 14.71 33.17 14.44C32.89 14.52 32.61 14.58 32.34 14.63C32.07 14.67 31.79 14.68 31.5 14.65C31.18 14.61 30.92 14.51 30.71 14.34C30.51 14.17 30.38 13.98 30.29 13.74C30.22 13.49 30.21 13.23 30.25 12.97C30.29 12.71 30.39 12.46 30.54 12.24C30.88 11.75 31.34 11.4 31.92 11.2Z" id="e9DEhg3IC"></path><path d="M49.06 10.22C48.65 11.04 48.36 11.83 48.16 12.59C48.05 13.05 48.09 13.33 48.29 13.42C48.5 13.52 48.75 13.44 49.06 13.19C49.69 12.65 50.28 12.06 50.81 11.4C51.33 10.75 51.85 10.12 52.37 9.51C52.54 9.3 52.71 9.23 52.89 9.3C53.08 9.37 53.17 9.52 53.14 9.76C53.13 9.87 53.06 10.06 52.95 10.32C52.85 10.57 52.75 10.84 52.62 11.11C52.5 11.39 52.37 11.65 52.25 11.9C52.12 12.14 52.03 12.3 51.97 12.38C51.54 13.19 51.08 13.87 50.58 14.42C50.09 14.96 49.6 15.37 49.1 15.63C48.61 15.9 48.14 16.02 47.68 16.01C47.24 16.01 46.82 15.87 46.44 15.59C46.09 15.33 45.84 15.02 45.69 14.65C45.52 14.29 45.43 13.91 45.41 13.51C45.39 13.11 45.41 12.69 45.5 12.28C45.57 11.85 45.65 11.46 45.75 11.11C46 10.25 46.29 9.43 46.64 8.63C46.99 7.84 47.37 7.07 47.79 6.3C47.91 6.05 48.1 5.69 48.35 5.22C48.61 4.73 48.9 4.22 49.23 3.68C49.56 3.13 49.92 2.58 50.31 2.05C50.71 1.51 51.12 1.07 51.54 0.72C51.96 0.36 52.39 0.13 52.81 0.03C53.22 -0.06 53.63 0.04 54.04 0.35C54.35 0.63 54.52 0.97 54.54 1.39C54.56 1.79 54.48 2.23 54.29 2.7C54.1 3.17 53.85 3.66 53.52 4.16C53.18 4.65 52.83 5.1 52.45 5.53C52.08 5.95 51.72 6.32 51.39 6.63C51.06 6.94 50.79 7.16 50.6 7.28C49.99 8.42 49.48 9.4 49.06 10.22Z" id="b1391YxOMf"></path><path d="M59.76 6.76C59.09 6.98 58.47 7.3 57.91 7.72C57.33 8.13 56.82 8.61 56.36 9.15C55.91 9.69 55.51 10.22 55.18 10.76C54.6 11.71 54.33 12.32 54.34 12.61C54.37 12.9 54.57 12.95 54.95 12.76C55.32 12.55 55.8 12.14 56.39 11.53C56.98 10.92 57.57 10.19 58.16 9.34C58.29 9.13 58.44 8.93 58.59 8.72C58.76 8.5 58.94 8.3 59.13 8.13C59.33 7.96 59.54 7.8 59.78 7.68C60.03 7.55 60.29 7.48 60.57 7.45C60.91 7.42 61.21 7.47 61.45 7.59C61.68 7.71 61.85 7.86 61.97 8.07C62.09 8.27 62.14 8.51 62.11 8.8C62.1 9.08 62 9.38 61.82 9.7C61.74 9.85 61.62 10.03 61.47 10.24C61.33 10.45 61.18 10.67 61.03 10.92C60.89 11.16 60.75 11.4 60.61 11.65C60.47 11.9 60.36 12.14 60.28 12.36C60.16 12.67 60.2 12.81 60.36 12.8C60.53 12.77 60.76 12.64 61.05 12.4C61.59 11.94 62.08 11.46 62.53 10.95C62.97 10.42 63.4 9.94 63.82 9.51C63.9 9.43 63.99 9.38 64.07 9.36C64.16 9.35 64.26 9.36 64.34 9.4C64.42 9.45 64.49 9.52 64.53 9.61C64.57 9.7 64.57 9.8 64.55 9.92C64.43 10.42 64.19 11.01 63.82 11.67C63.46 12.33 63.03 12.96 62.53 13.57C62.04 14.18 61.51 14.71 60.95 15.17C60.37 15.63 59.83 15.9 59.32 15.96C58.97 16.01 58.64 15.98 58.34 15.9C58.05 15.81 57.8 15.66 57.59 15.46C57.38 15.26 57.21 15.01 57.07 14.71C56.95 14.42 56.88 14.11 56.88 13.78C56.88 13.5 56.91 13.23 56.95 12.97C57 12.69 57.07 12.42 57.16 12.15C56.92 12.56 56.66 13 56.39 13.49C56.12 13.98 55.81 14.42 55.47 14.82C55.14 15.21 54.76 15.52 54.34 15.74C53.93 15.94 53.45 15.98 52.91 15.86C52.3 15.72 51.87 15.44 51.62 15.03C51.36 14.61 51.21 14.15 51.18 13.63C51.14 13.11 51.19 12.57 51.32 12.03C51.45 11.49 51.61 11.01 51.78 10.59C52.26 9.52 52.87 8.54 53.62 7.63C54.38 6.73 55.24 5.96 56.2 5.32C56.64 5.03 57.13 4.77 57.68 4.53C58.23 4.3 58.79 4.14 59.36 4.05C59.93 3.96 60.49 3.96 61.05 4.07C61.6 4.19 62.12 4.43 62.59 4.8C62.77 4.97 62.87 5.16 62.9 5.36C62.94 5.56 62.92 5.75 62.84 5.95C62.77 6.13 62.64 6.28 62.47 6.41C62.28 6.52 62.08 6.56 61.84 6.53C61.12 6.45 60.43 6.53 59.76 6.76Z" id="e6Orcg6WCv"></path><path d="M73.97 7.11C73.83 7.48 73.68 7.82 73.53 8.15C73.24 8.73 72.93 9.28 72.59 9.82C72.27 10.35 71.93 10.87 71.57 11.38C71.2 11.92 70.83 12.48 70.47 13.03C70.1 13.57 69.76 14.13 69.43 14.71C69.33 14.88 69.23 15.05 69.14 15.21C69.04 15.38 68.95 15.56 68.87 15.76C68.84 15.8 68.82 15.87 68.82 15.96C68.81 16.05 68.82 16.12 68.87 16.17C68.9 16.22 68.96 16.24 69.07 16.21C69.17 16.18 69.32 16.07 69.53 15.88C70.66 14.76 71.67 13.67 72.57 12.63C73.47 11.58 74.4 10.53 75.36 9.49C75.45 9.39 75.53 9.34 75.63 9.34C75.73 9.33 75.81 9.36 75.88 9.43C75.97 9.48 76.02 9.57 76.05 9.68C76.08 9.77 76.07 9.87 76.03 9.97C75.7 10.65 75.25 11.41 74.7 12.26C74.14 13.11 73.54 13.95 72.91 14.8C72.26 15.63 71.61 16.43 70.95 17.19C70.29 17.97 69.68 18.63 69.12 19.19C68.94 19.36 68.74 19.51 68.53 19.65C68.32 19.79 68.11 19.9 67.89 19.98C67.65 20.08 67.41 20.13 67.16 20.13C66.91 20.14 66.67 20.1 66.43 20C65.97 19.82 65.65 19.55 65.47 19.19C65.28 18.83 65.18 18.43 65.18 18C65.17 17.59 65.22 17.16 65.35 16.71C65.47 16.28 65.61 15.91 65.76 15.59C66.17 14.75 66.62 13.93 67.12 13.15C67.61 12.38 68.11 11.6 68.62 10.82C69.12 10.04 69.6 9.26 70.09 8.47C70.58 7.68 71 6.86 71.36 6.01C71.37 5.55 71.53 5.21 71.82 4.99C72.11 4.76 72.43 4.64 72.78 4.64C73.14 4.64 73.47 4.75 73.76 4.97C74.05 5.19 74.2 5.53 74.2 5.99C74.2 6.36 74.12 6.74 73.97 7.11ZM75.42 3.49C75.22 3.71 74.97 3.88 74.7 3.97C74.43 4.05 74.15 4.07 73.86 4.01C73.57 3.94 73.32 3.82 73.11 3.64C72.92 3.46 72.78 3.22 72.7 2.93C72.62 2.63 72.66 2.26 72.8 1.85C72.94 1.44 73.19 1.17 73.55 1.01C73.93 0.85 74.29 0.8 74.65 0.87C75.01 0.92 75.32 1.1 75.57 1.39C75.83 1.67 75.92 2.05 75.84 2.55C75.78 2.96 75.64 3.27 75.42 3.49Z" id="b1Vz7PqIhb"></path><path d="M79.06 13.38C79.49 13.37 79.94 13.28 80.41 13.11C80.88 12.93 81.36 12.71 81.83 12.42C82.3 12.13 82.75 11.82 83.18 11.49C83.61 11.15 84 10.83 84.33 10.51C84.67 10.19 84.94 9.92 85.14 9.7C85.28 9.53 85.42 9.44 85.56 9.43C85.71 9.4 85.83 9.43 85.91 9.51C86 9.58 86.06 9.7 86.08 9.86C86.1 10.02 86.08 10.19 85.99 10.38C85.21 11.96 84.2 13.25 82.95 14.28C82.55 14.6 82.11 14.89 81.64 15.15C81.18 15.42 80.71 15.63 80.21 15.78C79.72 15.93 79.22 16.01 78.71 16.03C78.19 16.05 77.68 15.97 77.16 15.8C76.55 15.58 76.07 15.28 75.71 14.9C75.34 14.52 75.09 14.08 74.94 13.61C74.77 13.14 74.7 12.63 74.73 12.09C74.74 11.54 74.83 10.99 74.98 10.45C75.13 9.89 75.33 9.36 75.58 8.84C75.83 8.33 76.09 7.86 76.37 7.45C76.67 7.06 76.98 6.67 77.33 6.28C77.68 5.88 78.05 5.52 78.46 5.2C78.87 4.88 79.31 4.61 79.77 4.41C80.24 4.19 80.73 4.05 81.25 3.99C81.84 3.91 82.42 3.99 82.97 4.24C83.54 4.49 83.98 4.89 84.29 5.43C84.59 5.94 84.73 6.47 84.7 7.01C84.69 7.55 84.56 8.07 84.33 8.57C84.09 9.07 83.77 9.53 83.37 9.95C82.96 10.36 82.55 10.7 82.12 10.95C81.38 11.38 80.65 11.62 79.93 11.67C79.23 11.72 78.51 11.63 77.79 11.42C77.68 11.75 77.61 12.05 77.6 12.34C77.6 12.62 77.7 12.84 77.89 13.01C78.24 13.26 78.63 13.38 79.06 13.38ZM81.31 8.51C81.4 8.38 81.52 8.21 81.66 7.99C81.8 7.77 81.9 7.55 81.95 7.32C82.02 7.09 81.99 6.95 81.85 6.91C81.73 6.85 81.58 6.85 81.41 6.91C81.17 6.98 80.94 7.1 80.73 7.28C80.5 7.46 80.3 7.63 80.12 7.78C79.83 8.06 79.55 8.36 79.29 8.7C79.04 9.02 78.81 9.35 78.6 9.7C79.06 9.74 79.48 9.69 79.87 9.55C80.42 9.33 80.9 8.98 81.31 8.51Z" id="d1S6pfjz51"></path><path d="M90.19 7.63C89.82 8.05 89.46 8.5 89.1 8.99C88.75 9.48 88.42 9.98 88.1 10.49C87.78 11 87.53 11.48 87.33 11.92C87.22 12.21 87.17 12.4 87.19 12.53C87.21 12.65 87.28 12.73 87.37 12.76C87.48 12.79 87.61 12.77 87.75 12.72C87.9 12.65 88.05 12.55 88.19 12.42C88.75 11.96 89.27 11.48 89.75 10.99C90.23 10.49 90.7 9.98 91.14 9.47C91.6 8.94 92.06 8.4 92.52 7.86C92.99 7.31 93.48 6.74 94 6.16C94.2 5.92 94.42 5.68 94.64 5.43C94.86 5.17 95.1 4.94 95.35 4.74C95.61 4.53 95.89 4.38 96.18 4.28C96.47 4.17 96.79 4.14 97.14 4.18C97.47 4.22 97.71 4.36 97.87 4.61C98.02 4.86 98.07 5.13 98.02 5.41C97.96 5.74 97.86 6.06 97.72 6.36C97.6 6.66 97.44 6.95 97.27 7.24C97.08 7.52 96.9 7.8 96.7 8.07C96.52 8.35 96.33 8.62 96.14 8.88C95.93 9.21 95.7 9.54 95.45 9.9C95.21 10.25 94.98 10.61 94.75 10.97C94.52 11.33 94.33 11.69 94.16 12.05C94.01 12.41 93.91 12.75 93.87 13.07C93.84 13.27 93.88 13.39 94 13.44C94.11 13.5 94.25 13.5 94.41 13.42C94.71 13.3 95.06 13.07 95.45 12.74C95.84 12.4 96.23 12.04 96.62 11.63C97.02 11.22 97.4 10.81 97.77 10.4C98.12 10 98.41 9.69 98.62 9.45C98.71 9.32 98.83 9.25 98.95 9.24C99.09 9.23 99.2 9.26 99.29 9.34C99.37 9.41 99.42 9.52 99.43 9.68C99.44 9.83 99.38 10.02 99.24 10.24C98.95 10.67 98.61 11.19 98.22 11.8C97.85 12.41 97.42 13.01 96.95 13.59C96.5 14.16 96 14.67 95.48 15.11C94.94 15.54 94.4 15.8 93.83 15.88C93.29 15.95 92.78 15.86 92.31 15.61C91.84 15.35 91.49 14.97 91.27 14.49C91.03 14.03 90.92 13.54 90.96 13.03C91 12.52 91.1 12.01 91.27 11.51C90.81 12.29 90.31 13.06 89.77 13.82C89.24 14.57 88.6 15.17 87.85 15.61C87.38 15.88 86.87 16 86.33 15.98C85.8 15.98 85.34 15.81 84.94 15.44C84.48 15.06 84.2 14.59 84.1 14.05C84.01 13.51 84.02 12.96 84.15 12.4C84.26 11.84 84.44 11.28 84.69 10.74C84.94 10.19 85.18 9.69 85.42 9.26C85.65 8.84 85.93 8.38 86.25 7.88C86.58 7.37 86.94 6.87 87.31 6.38C87.7 5.9 88.1 5.46 88.52 5.07C88.94 4.67 89.36 4.36 89.79 4.16C90.18 3.96 90.53 3.92 90.85 4.03C91.19 4.15 91.44 4.34 91.6 4.61C91.77 4.9 91.83 5.22 91.79 5.59C91.75 5.96 91.55 6.29 91.21 6.59C90.9 6.87 90.56 7.22 90.19 7.63Z" id="dmRBL81N"></path><path d="M103.49 6.66C103.7 6.4 103.91 6.15 104.14 5.91C104.37 5.66 104.6 5.42 104.84 5.2C105.12 4.95 105.43 4.73 105.76 4.53C106.09 4.32 106.43 4.18 106.78 4.09C107.12 4 107.47 3.98 107.82 4.05C108.18 4.13 108.53 4.3 108.86 4.57C109.14 4.82 109.33 5.11 109.45 5.43C109.56 5.73 109.6 6.05 109.57 6.38C109.56 6.72 109.5 7.05 109.4 7.38C109.31 7.72 109.19 8.03 109.05 8.32C108.81 8.82 108.56 9.3 108.28 9.76C108 10.21 107.72 10.65 107.43 11.11C107.38 11.18 107.3 11.31 107.18 11.49C107.06 11.65 106.94 11.85 106.8 12.07C106.66 12.29 106.53 12.52 106.41 12.76C106.29 12.98 106.22 13.16 106.2 13.3C106.17 13.44 106.2 13.52 106.28 13.55C106.36 13.56 106.54 13.49 106.8 13.32C107.1 13.15 107.44 12.9 107.8 12.57C108.16 12.24 108.52 11.88 108.88 11.49C109.24 11.1 109.58 10.73 109.9 10.36C110.24 9.99 110.52 9.69 110.76 9.45C110.88 9.3 111 9.21 111.11 9.18C111.22 9.15 111.32 9.16 111.4 9.22C111.49 9.26 111.53 9.34 111.55 9.47C111.56 9.59 111.53 9.73 111.47 9.86C111.33 10.14 111.14 10.46 110.92 10.8C110.72 11.15 110.48 11.5 110.22 11.86C109.97 12.23 109.71 12.58 109.45 12.92C109.18 13.27 108.95 13.58 108.74 13.84C108.49 14.13 108.21 14.43 107.9 14.74C107.6 15.04 107.27 15.3 106.93 15.51C106.58 15.71 106.21 15.85 105.82 15.9C105.45 15.96 105.04 15.89 104.61 15.69C104.2 15.49 103.89 15.22 103.68 14.9C103.47 14.58 103.33 14.24 103.28 13.86C103.24 13.48 103.26 13.08 103.34 12.67C103.43 12.27 103.54 11.89 103.7 11.53C103.89 11.04 104.12 10.59 104.39 10.15C104.66 9.71 104.95 9.27 105.24 8.84C105.42 8.58 105.61 8.31 105.82 8.03C106.03 7.74 106.22 7.45 106.38 7.16C106.54 6.94 106.6 6.79 106.57 6.72C106.54 6.65 106.46 6.65 106.32 6.7C106.2 6.74 106.03 6.82 105.82 6.95C105.62 7.06 105.43 7.18 105.24 7.3C105.04 7.43 104.87 7.55 104.74 7.66C104.6 7.77 104.52 7.83 104.49 7.84C103.58 8.52 102.75 9.3 101.99 10.17C101.45 10.8 100.95 11.46 100.51 12.15C100.08 12.84 99.74 13.56 99.49 14.34C99.42 14.52 99.38 14.69 99.37 14.86C99.35 15.02 99.31 15.17 99.24 15.32C99.16 15.52 99.03 15.66 98.87 15.76C98.71 15.85 98.54 15.92 98.37 15.94C98.19 15.96 98 15.94 97.8 15.9C97.61 15.85 97.44 15.77 97.28 15.65C96.9 15.38 96.68 15.02 96.64 14.57C96.6 14.13 96.65 13.65 96.78 13.15C96.91 12.65 97.09 12.17 97.33 11.7C97.55 11.23 97.74 10.84 97.89 10.55C98.11 10.15 98.36 9.76 98.62 9.38C98.89 9 99.16 8.61 99.43 8.22C99.71 7.82 99.96 7.41 100.2 6.99C100.43 6.56 100.64 6.11 100.82 5.66C100.89 5.36 101.02 5.14 101.2 4.97C101.38 4.8 101.58 4.7 101.8 4.66C102.04 4.6 102.27 4.6 102.51 4.66C102.75 4.71 102.95 4.82 103.14 4.97C103.33 5.12 103.47 5.32 103.55 5.55C103.64 5.79 103.64 6.05 103.57 6.34C103.54 6.46 103.52 6.56 103.49 6.66Z" id="bIGLK4DTL"></path><path d="M114.42 13.38C114.84 13.37 115.3 13.28 115.77 13.11C116.24 12.93 116.71 12.71 117.19 12.42C117.65 12.13 118.11 11.82 118.54 11.49C118.97 11.15 119.35 10.83 119.68 10.51C120.03 10.19 120.3 9.92 120.5 9.7C120.63 9.53 120.77 9.44 120.91 9.43C121.06 9.4 121.18 9.43 121.27 9.51C121.36 9.58 121.42 9.7 121.43 9.86C121.46 10.02 121.43 10.19 121.35 10.38C120.57 11.96 119.56 13.25 118.31 14.28C117.9 14.6 117.47 14.89 117 15.15C116.54 15.42 116.06 15.63 115.56 15.78C115.07 15.93 114.57 16.01 114.06 16.03C113.55 16.05 113.03 15.97 112.52 15.8C111.91 15.58 111.42 15.28 111.06 14.9C110.7 14.52 110.45 14.08 110.29 13.61C110.13 13.14 110.06 12.63 110.08 12.09C110.1 11.54 110.18 10.99 110.33 10.45C110.49 9.89 110.69 9.36 110.94 8.84C111.19 8.33 111.45 7.86 111.73 7.45C112.02 7.06 112.34 6.67 112.69 6.28C113.03 5.88 113.41 5.52 113.81 5.2C114.23 4.88 114.67 4.61 115.12 4.41C115.59 4.19 116.09 4.05 116.6 3.99C117.2 3.91 117.77 3.99 118.33 4.24C118.9 4.49 119.34 4.89 119.64 5.43C119.94 5.94 120.09 6.47 120.06 7.01C120.04 7.55 119.92 8.07 119.68 8.57C119.44 9.07 119.13 9.53 118.73 9.95C118.32 10.36 117.9 10.7 117.48 10.95C116.74 11.38 116.01 11.62 115.29 11.67C114.58 11.72 113.86 11.63 113.15 11.42C113.03 11.75 112.97 12.05 112.96 12.34C112.96 12.62 113.05 12.84 113.25 13.01C113.59 13.26 113.98 13.38 114.42 13.38ZM116.66 8.51C116.76 8.38 116.88 8.21 117.02 7.99C117.15 7.77 117.25 7.55 117.31 7.32C117.38 7.09 117.34 6.95 117.21 6.91C117.08 6.85 116.94 6.85 116.77 6.91C116.53 6.98 116.3 7.1 116.08 7.28C115.86 7.46 115.65 7.63 115.48 7.78C115.19 8.06 114.91 8.36 114.64 8.7C114.39 9.02 114.17 9.35 113.96 9.7C114.42 9.74 114.84 9.69 115.23 9.55C115.78 9.33 116.26 8.98 116.66 8.51Z" id="hsttKUDB8"></path><path d="M126.23 7.05C126.27 6.86 126.24 6.73 126.15 6.66C126.06 6.59 125.92 6.58 125.73 6.63C125.55 6.68 125.34 6.75 125.12 6.86C124.92 6.96 124.7 7.07 124.48 7.2C124.26 7.32 124.07 7.45 123.94 7.57C123.42 7.94 123.08 8.25 122.92 8.51C122.76 8.77 122.72 8.96 122.79 9.07C122.84 9.14 122.94 9.19 123.06 9.2C123.19 9.2 123.33 9.2 123.5 9.2C123.68 9.19 123.84 9.16 124 9.13C124.17 9.11 124.3 9.09 124.4 9.09C124.88 9.05 125.31 9.11 125.69 9.28C126.06 9.44 126.36 9.65 126.58 9.95C126.82 10.23 126.97 10.56 127.04 10.95C127.12 11.34 127.12 11.75 127.04 12.19C127.32 12.03 127.58 11.83 127.83 11.59C128.08 11.36 128.31 11.11 128.52 10.86C128.73 10.6 128.91 10.34 129.08 10.09C129.26 9.84 129.41 9.64 129.54 9.49C129.69 9.28 129.84 9.15 130 9.11C130.15 9.07 130.27 9.09 130.35 9.15C130.44 9.23 130.48 9.34 130.5 9.51C130.51 9.66 130.46 9.84 130.33 10.05C129.8 11.04 129.23 11.94 128.6 12.76C127.98 13.58 127.25 14.29 126.44 14.88C126.09 15.12 125.67 15.33 125.19 15.51C124.71 15.69 124.22 15.83 123.71 15.92C123.19 16.01 122.69 16.04 122.19 16.03C121.69 16.03 121.24 15.96 120.86 15.84C120.66 15.77 120.46 15.67 120.25 15.55C120.04 15.42 119.86 15.29 119.69 15.13C119.52 14.96 119.39 14.78 119.27 14.57C119.16 14.36 119.11 14.14 119.11 13.9C119.11 13.6 119.2 13.33 119.38 13.09C119.54 12.84 119.75 12.66 120 12.55C120.25 12.42 120.52 12.37 120.79 12.38C121.07 12.4 121.32 12.5 121.54 12.67C121.88 12.97 122.22 13.19 122.58 13.34C122.67 13.33 122.84 13.23 123.1 13.03C123.37 12.84 123.63 12.61 123.9 12.36C124.16 12.11 124.38 11.87 124.56 11.63C124.76 11.38 124.82 11.19 124.75 11.05C124.69 10.97 124.59 10.93 124.44 10.95C124.3 10.95 124.19 10.96 124.1 10.99C123.76 11.07 123.4 11.11 123.02 11.09C122.66 11.07 122.31 11 121.98 10.88C121.66 10.77 121.38 10.6 121.13 10.36C120.88 10.13 120.7 9.82 120.61 9.43C120.48 8.98 120.46 8.55 120.54 8.11C120.63 7.67 120.78 7.25 121 6.86C121.24 6.46 121.51 6.1 121.83 5.78C122.15 5.45 122.48 5.17 122.81 4.93C123.16 4.69 123.55 4.48 124 4.3C124.46 4.13 124.92 4.01 125.37 3.95C125.83 3.88 126.28 3.92 126.71 4.05C127.15 4.18 127.52 4.43 127.83 4.8C128.11 5.15 128.25 5.52 128.27 5.91C128.3 6.3 128.23 6.67 128.08 7.03C127.93 7.39 127.71 7.72 127.42 8.01C127.12 8.29 126.8 8.5 126.44 8.63C126.15 8.72 125.94 8.69 125.81 8.53C125.69 8.36 125.69 8.15 125.83 7.9C126.05 7.52 126.19 7.23 126.23 7.05Z" id="doOj4V5gc"></path><path d="M135.01 7.05C135.06 6.86 135.02 6.73 134.93 6.66C134.85 6.59 134.71 6.58 134.51 6.63C134.33 6.68 134.13 6.75 133.91 6.86C133.7 6.96 133.48 7.07 133.26 7.2C133.04 7.32 132.86 7.45 132.72 7.57C132.21 7.94 131.87 8.25 131.7 8.51C131.55 8.77 131.51 8.96 131.58 9.07C131.63 9.14 131.72 9.19 131.85 9.2C131.97 9.2 132.12 9.2 132.29 9.2C132.46 9.19 132.63 9.16 132.79 9.13C132.95 9.11 133.08 9.09 133.18 9.09C133.67 9.05 134.1 9.11 134.47 9.28C134.85 9.44 135.14 9.65 135.37 9.95C135.6 10.23 135.75 10.56 135.83 10.95C135.91 11.34 135.91 11.75 135.83 12.19C136.1 12.03 136.37 11.83 136.62 11.59C136.87 11.36 137.1 11.11 137.3 10.86C137.51 10.6 137.7 10.34 137.87 10.09C138.04 9.84 138.2 9.64 138.33 9.49C138.48 9.28 138.63 9.15 138.78 9.11C138.93 9.07 139.05 9.09 139.14 9.15C139.22 9.23 139.27 9.34 139.28 9.51C139.29 9.66 139.24 9.84 139.12 10.05C138.59 11.04 138.01 11.94 137.39 12.76C136.76 13.58 136.04 14.29 135.22 14.88C134.87 15.12 134.46 15.33 133.97 15.51C133.5 15.69 133 15.83 132.49 15.92C131.98 16.01 131.47 16.04 130.97 16.03C130.47 16.03 130.03 15.96 129.64 15.84C129.44 15.77 129.25 15.67 129.04 15.55C128.83 15.42 128.64 15.29 128.48 15.13C128.31 14.96 128.17 14.78 128.06 14.57C127.95 14.36 127.89 14.14 127.89 13.9C127.89 13.6 127.99 13.33 128.16 13.09C128.33 12.84 128.54 12.66 128.79 12.55C129.04 12.42 129.3 12.37 129.58 12.38C129.85 12.4 130.1 12.5 130.33 12.67C130.66 12.97 131.01 13.19 131.37 13.34C131.45 13.33 131.63 13.23 131.89 13.03C132.15 12.84 132.42 12.61 132.68 12.36C132.94 12.11 133.17 11.87 133.35 11.63C133.54 11.38 133.6 11.19 133.54 11.05C133.48 10.97 133.37 10.93 133.22 10.95C133.08 10.95 132.97 10.96 132.89 10.99C132.54 11.07 132.18 11.11 131.81 11.09C131.44 11.07 131.1 11 130.77 10.88C130.44 10.77 130.16 10.6 129.91 10.36C129.66 10.13 129.49 9.82 129.39 9.43C129.27 8.98 129.25 8.55 129.33 8.11C129.41 7.67 129.56 7.25 129.79 6.86C130.02 6.46 130.3 6.1 130.62 5.78C130.94 5.45 131.27 5.17 131.6 4.93C131.94 4.69 132.34 4.48 132.79 4.3C133.24 4.13 133.7 4.01 134.16 3.95C134.62 3.88 135.06 3.92 135.49 4.05C135.94 4.18 136.31 4.43 136.62 4.8C136.89 5.15 137.04 5.52 137.06 5.91C137.08 6.3 137.02 6.67 136.87 7.03C136.71 7.39 136.49 7.72 136.2 8.01C135.91 8.29 135.58 8.5 135.22 8.63C134.93 8.72 134.72 8.69 134.6 8.53C134.47 8.36 134.48 8.15 134.62 7.9C134.84 7.52 134.97 7.23 135.01 7.05Z" id="aeyQeb7uj"></path><path d="M141.99 13.38C142.42 13.37 142.87 13.28 143.34 13.11C143.81 12.93 144.28 12.71 144.76 12.42C145.23 12.13 145.68 11.82 146.11 11.49C146.54 11.15 146.92 10.83 147.26 10.51C147.6 10.19 147.87 9.92 148.07 9.7C148.2 9.53 148.34 9.44 148.49 9.43C148.64 9.4 148.76 9.43 148.84 9.51C148.93 9.58 148.99 9.7 149.01 9.86C149.03 10.02 149.01 10.19 148.92 10.38C148.14 11.96 147.13 13.25 145.88 14.28C145.48 14.6 145.04 14.89 144.57 15.15C144.11 15.42 143.63 15.63 143.13 15.78C142.64 15.93 142.14 16.01 141.63 16.03C141.12 16.05 140.6 15.97 140.09 15.8C139.48 15.58 138.99 15.28 138.64 14.9C138.27 14.52 138.02 14.08 137.86 13.61C137.7 13.14 137.63 12.63 137.66 12.09C137.67 11.54 137.76 10.99 137.91 10.45C138.06 9.89 138.26 9.36 138.51 8.84C138.76 8.33 139.02 7.86 139.3 7.45C139.59 7.06 139.91 6.67 140.26 6.28C140.6 5.88 140.98 5.52 141.38 5.2C141.8 4.88 142.24 4.61 142.7 4.41C143.16 4.19 143.66 4.05 144.17 3.99C144.77 3.91 145.35 3.99 145.9 4.24C146.47 4.49 146.91 4.89 147.22 5.43C147.52 5.94 147.66 6.47 147.63 7.01C147.62 7.55 147.49 8.07 147.26 8.57C147.02 9.07 146.7 9.53 146.3 9.95C145.89 10.36 145.48 10.7 145.05 10.95C144.31 11.38 143.58 11.62 142.86 11.67C142.15 11.72 141.44 11.63 140.72 11.42C140.6 11.75 140.54 12.05 140.53 12.34C140.53 12.62 140.62 12.84 140.82 13.01C141.17 13.26 141.56 13.38 141.99 13.38ZM144.24 8.51C144.33 8.38 144.45 8.21 144.59 7.99C144.73 7.77 144.83 7.55 144.88 7.32C144.95 7.09 144.91 6.95 144.78 6.91C144.65 6.85 144.51 6.85 144.34 6.91C144.1 6.98 143.87 7.1 143.65 7.28C143.43 7.46 143.23 7.63 143.05 7.78C142.76 8.06 142.48 8.36 142.22 8.7C141.97 9.02 141.74 9.35 141.53 9.7C141.99 9.74 142.41 9.69 142.8 9.55C143.35 9.33 143.83 8.98 144.24 8.51Z" id="b13RRweeFi"></path></defs><g><g><g><g><use xlink:href="#c2o8ND9QjZ" opacity="1" fill="#ffffff" fill-opacity="1"></use><g><use xlink:href="#c2o8ND9QjZ" opacity="1" fill-opacity="0" stroke="#000000" stroke-width="1" stroke-opacity="0"></use></g></g><g><use xlink:href="#ho73J9sfY" opacity="1" fill="#ffffff" fill-opacity="1"></use><g><use xlink:href="#ho73J9sfY" opacity="1" fill-opacity="0" stroke="#000000" stroke-width="1" stroke-opacity="0"></use></g></g><g><use xlink:href="#cpAr6GG75" opacity="1" fill="#ffffff" fill-opacity="1"></use><g><use xlink:href="#cpAr6GG75" opacity="1" fill-opacity="0" stroke="#000000" stroke-width="1" stroke-opacity="0"></use></g></g><g><use xlink:href="#e9DEhg3IC" opacity="1" fill="#ffffff" fill-opacity="1"></use><g><use xlink:href="#e9DEhg3IC" opacity="1" fill-opacity="0" stroke="#000000" stroke-width="1" stroke-opacity="0"></use></g></g><g><use xlink:href="#b1391YxOMf" opacity="1" fill="#ffffff" fill-opacity="1"></use><g><use xlink:href="#b1391YxOMf" opacity="1" fill-opacity="0" stroke="#000000" stroke-width="1" stroke-opacity="0"></use></g></g><g><use xlink:href="#e6Orcg6WCv" opacity="1" fill="#ffffff" fill-opacity="1"></use><g><use xlink:href="#e6Orcg6WCv" opacity="1" fill-opacity="0" stroke="#000000" stroke-width="1" stroke-opacity="0"></use></g></g><g><use xlink:href="#b1Vz7PqIhb" opacity="1" fill="#ffffff" fill-opacity="1"></use><g><use xlink:href="#b1Vz7PqIhb" opacity="1" fill-opacity="0" stroke="#000000" stroke-width="1" stroke-opacity="0"></use></g></g><g><use xlink:href="#d1S6pfjz51" opacity="1" fill="#ffffff" fill-opacity="1"></use><g><use xlink:href="#d1S6pfjz51" opacity="1" fill-opacity="0" stroke="#000000" stroke-width="1" stroke-opacity="0"></use></g></g><g><use xlink:href="#dmRBL81N" opacity="1" fill="#ffffff" fill-opacity="1"></use><g><use xlink:href="#dmRBL81N" opacity="1" fill-opacity="0" stroke="#000000" stroke-width="1" stroke-opacity="0"></use></g></g><g><use xlink:href="#bIGLK4DTL" opacity="1" fill="#ffffff" fill-opacity="1"></use><g><use xlink:href="#bIGLK4DTL" opacity="1" fill-opacity="0" stroke="#000000" stroke-width="1" stroke-opacity="0"></use></g></g><g><use xlink:href="#hsttKUDB8" opacity="1" fill="#ffffff" fill-opacity="1"></use><g><use xlink:href="#hsttKUDB8" opacity="1" fill-opacity="0" stroke="#000000" stroke-width="1" stroke-opacity="0"></use></g></g><g><use xlink:href="#doOj4V5gc" opacity="1" fill="#ffffff" fill-opacity="1"></use><g><use xlink:href="#doOj4V5gc" opacity="1" fill-opacity="0" stroke="#000000" stroke-width="1" stroke-opacity="0"></use></g></g><g><use xlink:href="#aeyQeb7uj" opacity="1" fill="#ffffff" fill-opacity="1"></use><g><use xlink:href="#aeyQeb7uj" opacity="1" fill-opacity="0" stroke="#000000" stroke-width="1" stroke-opacity="0"></use></g></g><g><use xlink:href="#b13RRweeFi" opacity="1" fill="#ffffff" fill-opacity="1"></use><g><use xlink:href="#b13RRweeFi" opacity="1" fill-opacity="0" stroke="#000000" stroke-width="1" stroke-opacity="0"></use></g></g></g></g></g></svg>