<?xml version="1.0" encoding="UTF-8" standalone="no"?>
<!DOCTYPE svg PUBLIC "-//W3C//DTD SVG 1.1//EN" "http://www.w3.org/Graphics/SVG/1.1/DTD/svg11.dtd">
<svg version="1.1" xmlns="http://www.w3.org/2000/svg" xmlns:xlink="http://www.w3.org/1999/xlink" preserveAspectRatio="xMidYMid meet" viewBox="0 0 24 24" width="24" height="24"><defs><path d="M20 21C20 19.8 20 19.13 20 19C20 16.79 18.21 15 16 15C15.2 15 8.8 15 8 15C5.79 15 4 16.79 4 19C4 19.13 4 19.8 4 21" id="b2CApwWtGV"></path><path d="M12 3C9.79 3 8 4.79 8 7C8 9.21 9.79 11 12 11C14.21 11 16 9.21 16 7C16 4.79 14.21 3 12 3Z" id="ecP448OFO"></path></defs><g><g><g><use xlink:href="#b2CApwWtGV" opacity="1" fill="#a366fb" fill-opacity="1"></use><g><use xlink:href="#b2CApwWtGV" opacity="1" fill-opacity="0" stroke="#a366fb" stroke-width="2" stroke-opacity="1"></use></g></g><g><use xlink:href="#ecP448OFO" opacity="1" fill="#a366fb" fill-opacity="1"></use><g><use xlink:href="#ecP448OFO" opacity="1" fill-opacity="0" stroke="#a366fb" stroke-width="1" stroke-opacity="1"></use></g></g></g></g></svg>
